<svg id="visual" viewBox="0 0 900 300" width="900" height="300" xmlns="http://www.w3.org/2000/svg" xmlns:xlink="http://www.w3.org/1999/xlink" version="1.1"><rect x="0" y="0" width="900" height="300" fill="#001220"></rect><path d="M0 193L21.5 194C43 195 86 197 128.8 195.3C171.7 193.7 214.3 188.3 257.2 191.5C300 194.7 343 206.3 385.8 210.8C428.7 215.3 471.3 212.7 514.2 211.5C557 210.3 600 210.7 642.8 207.2C685.7 203.7 728.3 196.3 771.2 195C814 193.7 857 198.3 878.5 200.7L900 203L900 301L878.5 301C857 301 814 301 771.2 301C728.3 301 685.7 301 642.8 301C600 301 557 301 514.2 301C471.3 301 428.7 301 385.8 301C343 301 300 301 257.2 301C214.3 301 171.7 301 128.8 301C86 301 43 301 21.5 301L0 301Z" fill="#6969fa"></path><path d="M0 233L21.5 228C43 223 86 213 128.8 209.7C171.7 206.3 214.3 209.7 257.2 212.5C300 215.3 343 217.7 385.8 220.2C428.7 222.7 471.3 225.3 514.2 227.2C557 229 600 230 642.8 227.7C685.7 225.3 728.3 219.7 771.2 221C814 222.3 857 230.7 878.5 234.8L900 239L900 301L878.5 301C857 301 814 301 771.2 301C728.3 301 685.7 301 642.8 301C600 301 557 301 514.2 301C471.3 301 428.7 301 385.8 301C343 301 300 301 257.2 301C214.3 301 171.7 301 128.8 301C86 301 43 301 21.5 301L0 301Z" fill="#4958d1"></path><path d="M0 226L21.5 228.3C43 230.7 86 235.3 128.8 238.8C171.7 242.3 214.3 244.7 257.2 245.5C300 246.3 343 245.7 385.8 242C428.7 238.3 471.3 231.7 514.2 228.3C557 225 600 225 642.8 229.2C685.7 233.3 728.3 241.7 771.2 241.2C814 240.7 857 231.3 878.5 226.7L900 222L900 301L878.5 301C857 301 814 301 771.2 301C728.3 301 685.7 301 642.8 301C600 301 557 301 514.2 301C471.3 301 428.7 301 385.8 301C343 301 300 301 257.2 301C214.3 301 171.7 301 128.8 301C86 301 43 301 21.5 301L0 301Z" fill="#2c47a8"></path><path d="M0 249L21.5 252.5C43 256 86 263 128.8 266.3C171.7 269.7 214.3 269.3 257.2 266.8C300 264.3 343 259.7 385.8 257.2C428.7 254.7 471.3 254.3 514.2 254.2C557 254 600 254 642.8 256.2C685.7 258.3 728.3 262.7 771.2 264C814 265.3 857 263.7 878.5 262.8L900 262L900 301L878.5 301C857 301 814 301 771.2 301C728.3 301 685.7 301 642.8 301C600 301 557 301 514.2 301C471.3 301 428.7 301 385.8 301C343 301 300 301 257.2 301C214.3 301 171.7 301 128.8 301C86 301 43 301 21.5 301L0 301Z" fill="#133680"></path><path d="M0 263L21.5 262.8C43 262.7 86 262.3 128.8 264.3C171.7 266.3 214.3 270.7 257.2 271.2C300 271.7 343 268.3 385.8 269.7C428.7 271 471.3 277 514.2 279C557 281 600 279 642.8 279.5C685.7 280 728.3 283 771.2 281.7C814 280.3 857 274.7 878.5 271.8L900 269L900 301L878.5 301C857 301 814 301 771.2 301C728.3 301 685.7 301 642.8 301C600 301 557 301 514.2 301C471.3 301 428.7 301 385.8 301C343 301 300 301 257.2 301C214.3 301 171.7 301 128.8 301C86 301 43 301 21.5 301L0 301Z" fill="#022559"></path></svg>