<svg id="visual" viewBox="0 0 900 250" width="900" height="250" xmlns="http://www.w3.org/2000/svg" xmlns:xlink="http://www.w3.org/1999/xlink" version="1.1"><path d="M0 175L21.5 172.5C43 170 86 165 128.8 166C171.7 167 214.3 174 257.2 182.7C300 191.3 343 201.7 385.8 205.2C428.7 208.7 471.3 205.3 514.2 200.3C557 195.3 600 188.7 642.8 190.5C685.7 192.3 728.3 202.7 771.2 204.5C814 206.3 857 199.7 878.5 196.3L900 193L900 0L878.5 0C857 0 814 0 771.2 0C728.3 0 685.7 0 642.8 0C600 0 557 0 514.2 0C471.3 0 428.7 0 385.8 0C343 0 300 0 257.2 0C214.3 0 171.7 0 128.8 0C86 0 43 0 21.5 0L0 0Z" fill="#30a9de"></path><path d="M0 159L21.5 154.8C43 150.7 86 142.3 128.8 138.2C171.7 134 214.3 134 257.2 132.7C300 131.3 343 128.7 385.8 128.7C428.7 128.7 471.3 131.3 514.2 137.8C557 144.3 600 154.7 642.8 157.7C685.7 160.7 728.3 156.3 771.2 150.5C814 144.7 857 137.3 878.5 133.7L900 130L900 0L878.5 0C857 0 814 0 771.2 0C728.3 0 685.7 0 642.8 0C600 0 557 0 514.2 0C471.3 0 428.7 0 385.8 0C343 0 300 0 257.2 0C214.3 0 171.7 0 128.8 0C86 0 43 0 21.5 0L0 0Z" fill="#2783bd"></path><path d="M0 98L21.5 99.5C43 101 86 104 128.8 106.8C171.7 109.7 214.3 112.3 257.2 116.3C300 120.3 343 125.7 385.8 120.8C428.7 116 471.3 101 514.2 94.8C557 88.7 600 91.3 642.8 98.2C685.7 105 728.3 116 771.2 123C814 130 857 133 878.5 134.5L900 136L900 0L878.5 0C857 0 814 0 771.2 0C728.3 0 685.7 0 642.8 0C600 0 557 0 514.2 0C471.3 0 428.7 0 385.8 0C343 0 300 0 257.2 0C214.3 0 171.7 0 128.8 0C86 0 43 0 21.5 0L0 0Z" fill="#245f99"></path><path d="M0 82L21.5 83.5C43 85 86 88 128.8 84.2C171.7 80.3 214.3 69.7 257.2 66.5C300 63.3 343 67.7 385.8 72.8C428.7 78 471.3 84 514.2 82.8C557 81.7 600 73.3 642.8 71.5C685.7 69.7 728.3 74.3 771.2 72.5C814 70.7 857 62.3 878.5 58.2L900 54L900 0L878.5 0C857 0 814 0 771.2 0C728.3 0 685.7 0 642.8 0C600 0 557 0 514.2 0C471.3 0 428.7 0 385.8 0C343 0 300 0 257.2 0C214.3 0 171.7 0 128.8 0C86 0 43 0 21.5 0L0 0Z" fill="#213d74"></path><path d="M0 52L21.5 46.7C43 41.3 86 30.7 128.8 29.8C171.7 29 214.3 38 257.2 43.3C300 48.7 343 50.3 385.8 47.5C428.7 44.7 471.3 37.3 514.2 34.3C557 31.3 600 32.7 642.8 31.3C685.7 30 728.3 26 771.2 28.2C814 30.3 857 38.7 878.5 42.8L900 47L900 0L878.5 0C857 0 814 0 771.2 0C728.3 0 685.7 0 642.8 0C600 0 557 0 514.2 0C471.3 0 428.7 0 385.8 0C343 0 300 0 257.2 0C214.3 0 171.7 0 128.8 0C86 0 43 0 21.5 0L0 0Z" fill="#1a1d4e"></path></svg>