<svg id="visual" viewBox="0 0 900 300" width="900" height="300" xmlns="http://www.w3.org/2000/svg" xmlns:xlink="http://www.w3.org/1999/xlink" version="1.1"><rect x="0" y="0" width="900" height="300" fill="#001220"></rect><path d="M0 105L21.5 104C43 103 86 101 128.8 102.7C171.7 104.3 214.3 109.7 257.2 106.5C300 103.3 343 91.7 385.8 87.2C428.7 82.7 471.3 85.3 514.2 86.5C557 87.7 600 87.3 642.8 90.8C685.7 94.3 728.3 101.7 771.2 103C814 104.3 857 99.7 878.5 97.3L900 95L900 0L878.5 0C857 0 814 0 771.2 0C728.3 0 685.7 0 642.8 0C600 0 557 0 514.2 0C471.3 0 428.7 0 385.8 0C343 0 300 0 257.2 0C214.3 0 171.7 0 128.8 0C86 0 43 0 21.5 0L0 0Z" fill="#6969fa"></path><path d="M0 65L21.5 70C43 75 86 85 128.8 88.3C171.7 91.7 214.3 88.3 257.2 85.5C300 82.7 343 80.3 385.8 77.8C428.7 75.3 471.3 72.7 514.2 70.8C557 69 600 68 642.8 70.3C685.7 72.7 728.3 78.3 771.2 77C814 75.7 857 67.3 878.5 63.2L900 59L900 0L878.5 0C857 0 814 0 771.2 0C728.3 0 685.7 0 642.8 0C600 0 557 0 514.2 0C471.3 0 428.7 0 385.8 0C343 0 300 0 257.2 0C214.3 0 171.7 0 128.8 0C86 0 43 0 21.5 0L0 0Z" fill="#4958d1"></path><path d="M0 72L21.5 69.7C43 67.3 86 62.7 128.8 59.2C171.7 55.7 214.3 53.3 257.2 52.5C300 51.7 343 52.3 385.8 56C428.7 59.7 471.3 66.3 514.2 69.7C557 73 600 73 642.8 68.8C685.7 64.7 728.3 56.3 771.2 56.8C814 57.3 857 66.7 878.5 71.3L900 76L900 0L878.5 0C857 0 814 0 771.2 0C728.3 0 685.7 0 642.8 0C600 0 557 0 514.2 0C471.3 0 428.7 0 385.8 0C343 0 300 0 257.2 0C214.3 0 171.7 0 128.8 0C86 0 43 0 21.5 0L0 0Z" fill="#2c47a8"></path><path d="M0 49L21.5 45.5C43 42 86 35 128.8 31.7C171.7 28.3 214.3 28.7 257.2 31.2C300 33.7 343 38.3 385.8 40.8C428.7 43.3 471.3 43.7 514.2 43.8C557 44 600 44 642.8 41.8C685.7 39.7 728.3 35.3 771.2 34C814 32.7 857 34.3 878.5 35.2L900 36L900 0L878.5 0C857 0 814 0 771.2 0C728.3 0 685.7 0 642.8 0C600 0 557 0 514.2 0C471.3 0 428.7 0 385.8 0C343 0 300 0 257.2 0C214.3 0 171.7 0 128.8 0C86 0 43 0 21.5 0L0 0Z" fill="#133680"></path><path d="M0 35L21.5 35.2C43 35.3 86 35.7 128.8 33.7C171.7 31.7 214.3 27.3 257.2 26.8C300 26.3 343 29.7 385.8 28.3C428.7 27 471.3 21 514.2 19C557 17 600 19 642.8 18.5C685.7 18 728.3 15 771.2 16.3C814 17.7 857 23.3 878.5 26.2L900 29L900 0L878.5 0C857 0 814 0 771.2 0C728.3 0 685.7 0 642.8 0C600 0 557 0 514.2 0C471.3 0 428.7 0 385.8 0C343 0 300 0 257.2 0C214.3 0 171.7 0 128.8 0C86 0 43 0 21.5 0L0 0Z" fill="#022559"></path></svg>