<svg id="visual" viewBox="0 0 900 250" width="900" height="250" xmlns="http://www.w3.org/2000/svg" xmlns:xlink="http://www.w3.org/1999/xlink" version="1.1"><path d="M0 73L21.5 75.5C43 78 86 83 128.8 82C171.7 81 214.3 74 257.2 65.3C300 56.7 343 46.3 385.8 42.8C428.7 39.3 471.3 42.7 514.2 47.7C557 52.7 600 59.3 642.8 57.5C685.7 55.7 728.3 45.3 771.2 43.5C814 41.7 857 48.3 878.5 51.7L900 55L900 251L878.5 251C857 251 814 251 771.2 251C728.3 251 685.7 251 642.8 251C600 251 557 251 514.2 251C471.3 251 428.7 251 385.8 251C343 251 300 251 257.2 251C214.3 251 171.7 251 128.8 251C86 251 43 251 21.5 251L0 251Z" fill="#30a9de"></path><path d="M0 89L21.5 93.2C43 97.3 86 105.7 128.8 109.8C171.7 114 214.3 114 257.2 115.3C300 116.7 343 119.3 385.8 119.3C428.7 119.3 471.3 116.7 514.2 110.2C557 103.7 600 93.3 642.8 90.3C685.7 87.3 728.3 91.7 771.2 97.5C814 103.3 857 110.7 878.5 114.3L900 118L900 251L878.5 251C857 251 814 251 771.2 251C728.3 251 685.7 251 642.8 251C600 251 557 251 514.2 251C471.3 251 428.7 251 385.8 251C343 251 300 251 257.2 251C214.3 251 171.7 251 128.8 251C86 251 43 251 21.5 251L0 251Z" fill="#2783bd"></path><path d="M0 150L21.5 148.5C43 147 86 144 128.8 141.2C171.7 138.3 214.3 135.7 257.2 131.7C300 127.7 343 122.3 385.8 127.2C428.7 132 471.3 147 514.2 153.2C557 159.3 600 156.7 642.8 149.8C685.7 143 728.3 132 771.2 125C814 118 857 115 878.5 113.5L900 112L900 251L878.5 251C857 251 814 251 771.2 251C728.3 251 685.7 251 642.8 251C600 251 557 251 514.2 251C471.3 251 428.7 251 385.8 251C343 251 300 251 257.2 251C214.3 251 171.7 251 128.8 251C86 251 43 251 21.5 251L0 251Z" fill="#245f99"></path><path d="M0 166L21.5 164.5C43 163 86 160 128.8 163.8C171.7 167.7 214.3 178.3 257.2 181.5C300 184.7 343 180.3 385.8 175.2C428.7 170 471.3 164 514.2 165.2C557 166.3 600 174.7 642.8 176.5C685.7 178.3 728.3 173.7 771.2 175.5C814 177.3 857 185.7 878.5 189.8L900 194L900 251L878.5 251C857 251 814 251 771.2 251C728.3 251 685.7 251 642.8 251C600 251 557 251 514.2 251C471.3 251 428.7 251 385.8 251C343 251 300 251 257.2 251C214.3 251 171.7 251 128.8 251C86 251 43 251 21.5 251L0 251Z" fill="#213d74"></path><path d="M0 196L21.5 201.3C43 206.7 86 217.3 128.8 218.2C171.7 219 214.3 210 257.2 204.7C300 199.3 343 197.7 385.8 200.5C428.7 203.3 471.3 210.7 514.2 213.7C557 216.7 600 215.3 642.8 216.7C685.7 218 728.3 222 771.2 219.8C814 217.7 857 209.3 878.5 205.2L900 201L900 251L878.5 251C857 251 814 251 771.2 251C728.3 251 685.7 251 642.8 251C600 251 557 251 514.2 251C471.3 251 428.7 251 385.8 251C343 251 300 251 257.2 251C214.3 251 171.7 251 128.8 251C86 251 43 251 21.5 251L0 251Z" fill="#1a1d4e"></path></svg>