<svg id="visual" viewBox="0 0 900 250" width="900" height="250" xmlns="http://www.w3.org/2000/svg" xmlns:xlink="http://www.w3.org/1999/xlink" version="1.1"><rect x="0" y="0" width="900" height="250" fill="#001220"></rect><path d="M0 126L21.5 124.2C43 122.3 86 118.7 128.8 112.8C171.7 107 214.3 99 257.2 97.2C300 95.3 343 99.7 385.8 100.2C428.7 100.7 471.3 97.3 514.2 99.2C557 101 600 108 642.8 114.2C685.7 120.3 728.3 125.7 771.2 121C814 116.3 857 101.7 878.5 94.3L900 87L900 0L878.5 0C857 0 814 0 771.2 0C728.3 0 685.7 0 642.8 0C600 0 557 0 514.2 0C471.3 0 428.7 0 385.8 0C343 0 300 0 257.2 0C214.3 0 171.7 0 128.8 0C86 0 43 0 21.5 0L0 0Z" fill="#fa7268"></path><path d="M0 110L21.5 109.2C43 108.3 86 106.7 128.8 101.3C171.7 96 214.3 87 257.2 88.5C300 90 343 102 385.8 105.3C428.7 108.7 471.3 103.3 514.2 100.8C557 98.3 600 98.7 642.8 96.3C685.7 94 728.3 89 771.2 89C814 89 857 94 878.5 96.5L900 99L900 0L878.5 0C857 0 814 0 771.2 0C728.3 0 685.7 0 642.8 0C600 0 557 0 514.2 0C471.3 0 428.7 0 385.8 0C343 0 300 0 257.2 0C214.3 0 171.7 0 128.8 0C86 0 43 0 21.5 0L0 0Z" fill="#ef5f67"></path><path d="M0 74L21.5 74.3C43 74.7 86 75.3 128.8 77.5C171.7 79.7 214.3 83.3 257.2 85.5C300 87.7 343 88.3 385.8 86.8C428.7 85.3 471.3 81.7 514.2 80.8C557 80 600 82 642.8 81C685.7 80 728.3 76 771.2 73C814 70 857 68 878.5 67L900 66L900 0L878.5 0C857 0 814 0 771.2 0C728.3 0 685.7 0 642.8 0C600 0 557 0 514.2 0C471.3 0 428.7 0 385.8 0C343 0 300 0 257.2 0C214.3 0 171.7 0 128.8 0C86 0 43 0 21.5 0L0 0Z" fill="#e34c67"></path><path d="M0 47L21.5 46.8C43 46.7 86 46.3 128.8 47.2C171.7 48 214.3 50 257.2 53.5C300 57 343 62 385.8 61.3C428.7 60.7 471.3 54.3 514.2 49C557 43.7 600 39.3 642.8 39C685.7 38.7 728.3 42.3 771.2 45.7C814 49 857 52 878.5 53.5L900 55L900 0L878.5 0C857 0 814 0 771.2 0C728.3 0 685.7 0 642.8 0C600 0 557 0 514.2 0C471.3 0 428.7 0 385.8 0C343 0 300 0 257.2 0C214.3 0 171.7 0 128.8 0C86 0 43 0 21.5 0L0 0Z" fill="#d53867"></path><path d="M0 33L21.5 31.2C43 29.3 86 25.7 128.8 23.2C171.7 20.7 214.3 19.3 257.2 22C300 24.7 343 31.3 385.8 35C428.7 38.7 471.3 39.3 514.2 38.3C557 37.3 600 34.7 642.8 31.7C685.7 28.7 728.3 25.3 771.2 25.7C814 26 857 30 878.5 32L900 34L900 0L878.5 0C857 0 814 0 771.2 0C728.3 0 685.7 0 642.8 0C600 0 557 0 514.2 0C471.3 0 428.7 0 385.8 0C343 0 300 0 257.2 0C214.3 0 171.7 0 128.8 0C86 0 43 0 21.5 0L0 0Z" fill="#c62368"></path></svg>