<svg id="visual" viewBox="0 0 900 250" width="900" height="250" xmlns="http://www.w3.org/2000/svg" xmlns:xlink="http://www.w3.org/1999/xlink" version="1.1"><rect x="0" y="0" width="900" height="250" fill="#001220"></rect><path d="M0 148L21.5 144.3C43 140.7 86 133.3 128.8 132.3C171.7 131.3 214.3 136.7 257.2 135.2C300 133.7 343 125.3 385.8 123.8C428.7 122.3 471.3 127.7 514.2 130.5C557 133.3 600 133.7 642.8 137.3C685.7 141 728.3 148 771.2 146.5C814 145 857 135 878.5 130L900 125L900 251L878.5 251C857 251 814 251 771.2 251C728.3 251 685.7 251 642.8 251C600 251 557 251 514.2 251C471.3 251 428.7 251 385.8 251C343 251 300 251 257.2 251C214.3 251 171.7 251 128.8 251C86 251 43 251 21.5 251L0 251Z" fill="#fa7268"></path><path d="M0 155L21.5 157.3C43 159.7 86 164.3 128.8 160C171.7 155.7 214.3 142.3 257.2 140.2C300 138 343 147 385.8 147.5C428.7 148 471.3 140 514.2 143.2C557 146.3 600 160.7 642.8 161.8C685.7 163 728.3 151 771.2 147.7C814 144.3 857 149.7 878.5 152.3L900 155L900 251L878.5 251C857 251 814 251 771.2 251C728.3 251 685.7 251 642.8 251C600 251 557 251 514.2 251C471.3 251 428.7 251 385.8 251C343 251 300 251 257.2 251C214.3 251 171.7 251 128.8 251C86 251 43 251 21.5 251L0 251Z" fill="#ef5f67"></path><path d="M0 166L21.5 169.3C43 172.7 86 179.3 128.8 179.5C171.7 179.7 214.3 173.3 257.2 172.5C300 171.7 343 176.3 385.8 179C428.7 181.7 471.3 182.3 514.2 182.7C557 183 600 183 642.8 182.3C685.7 181.7 728.3 180.3 771.2 178.7C814 177 857 175 878.5 174L900 173L900 251L878.5 251C857 251 814 251 771.2 251C728.3 251 685.7 251 642.8 251C600 251 557 251 514.2 251C471.3 251 428.7 251 385.8 251C343 251 300 251 257.2 251C214.3 251 171.7 251 128.8 251C86 251 43 251 21.5 251L0 251Z" fill="#e34c67"></path><path d="M0 216L21.5 212.5C43 209 86 202 128.8 198.5C171.7 195 214.3 195 257.2 195.3C300 195.7 343 196.3 385.8 199.8C428.7 203.3 471.3 209.7 514.2 210.7C557 211.7 600 207.3 642.8 201.5C685.7 195.7 728.3 188.3 771.2 189.5C814 190.7 857 200.3 878.5 205.2L900 210L900 251L878.5 251C857 251 814 251 771.2 251C728.3 251 685.7 251 642.8 251C600 251 557 251 514.2 251C471.3 251 428.7 251 385.8 251C343 251 300 251 257.2 251C214.3 251 171.7 251 128.8 251C86 251 43 251 21.5 251L0 251Z" fill="#d53867"></path><path d="M0 211L21.5 212C43 213 86 215 128.8 215.8C171.7 216.7 214.3 216.3 257.2 216.5C300 216.7 343 217.3 385.8 216.8C428.7 216.3 471.3 214.7 514.2 216.7C557 218.7 600 224.3 642.8 225.3C685.7 226.3 728.3 222.7 771.2 222.7C814 222.7 857 226.3 878.5 228.2L900 230L900 251L878.5 251C857 251 814 251 771.2 251C728.3 251 685.7 251 642.8 251C600 251 557 251 514.2 251C471.3 251 428.7 251 385.8 251C343 251 300 251 257.2 251C214.3 251 171.7 251 128.8 251C86 251 43 251 21.5 251L0 251Z" fill="#c62368"></path></svg>